<mxfile host="Electron" modified="2024-07-31T15:27:53.616Z" agent="Mozilla/5.0 (Macintosh; Intel Mac OS X 10_15_7) AppleWebKit/537.36 (KHTML, like Gecko) draw.io/22.1.16 Chrome/120.0.6099.109 Electron/28.1.0 Safari/537.36" etag="0hSYegAd_QkTfXu1O6P7" version="22.1.16" type="device">
  <diagram name="Page-1" id="vOSsTjQ1IRtIUrMEF979">
    <mxGraphModel dx="1684" dy="563" grid="1" gridSize="10" guides="1" tooltips="1" connect="1" arrows="1" fold="1" page="1" pageScale="1" pageWidth="827" pageHeight="1169" math="0" shadow="0">
      <root>
        <mxCell id="0" />
        <mxCell id="1" parent="0" />
        <mxCell id="PphPl2FGhP92IQoDwCSP-52" value="" style="rounded=0;whiteSpace=wrap;html=1;fontColor=none;labelBackgroundColor=#E6E6E6;noLabel=1;strokeColor=none;gradientColor=none;dashed=1;fillStyle=hatch;fillColor=#E6E6E6;" parent="1" vertex="1">
          <mxGeometry x="360" y="100" width="110" height="340" as="geometry" />
        </mxCell>
        <mxCell id="PphPl2FGhP92IQoDwCSP-2" value="K&lt;sub&gt;1&lt;sub&gt;1&lt;/sub&gt;&lt;/sub&gt;" style="whiteSpace=wrap;html=1;aspect=fixed;" parent="1" vertex="1">
          <mxGeometry x="60" y="140" width="30" height="30" as="geometry" />
        </mxCell>
        <mxCell id="PphPl2FGhP92IQoDwCSP-5" value="" style="endArrow=none;dashed=1;html=1;dashPattern=1 3;strokeWidth=2;rounded=0;" parent="1" edge="1">
          <mxGeometry width="50" height="50" relative="1" as="geometry">
            <mxPoint x="240" y="154.76" as="sourcePoint" />
            <mxPoint x="280" y="154.76" as="targetPoint" />
            <Array as="points">
              <mxPoint x="240" y="154.76" />
            </Array>
          </mxGeometry>
        </mxCell>
        <mxCell id="PphPl2FGhP92IQoDwCSP-10" value="K&lt;sub&gt;1&lt;sub&gt;2&lt;/sub&gt;&lt;/sub&gt;" style="whiteSpace=wrap;html=1;aspect=fixed;" parent="1" vertex="1">
          <mxGeometry x="120" y="140" width="30" height="30" as="geometry" />
        </mxCell>
        <mxCell id="PphPl2FGhP92IQoDwCSP-11" value="K&lt;sub&gt;1&lt;sub&gt;3&lt;/sub&gt;&lt;/sub&gt;" style="whiteSpace=wrap;html=1;aspect=fixed;" parent="1" vertex="1">
          <mxGeometry x="180" y="140" width="30" height="30" as="geometry" />
        </mxCell>
        <mxCell id="PphPl2FGhP92IQoDwCSP-12" value="K&lt;sub&gt;1&lt;sub&gt;n&lt;/sub&gt;&lt;/sub&gt;" style="whiteSpace=wrap;html=1;aspect=fixed;" parent="1" vertex="1">
          <mxGeometry x="310" y="140" width="30" height="30" as="geometry" />
        </mxCell>
        <mxCell id="PphPl2FGhP92IQoDwCSP-13" value="" style="shape=curlyBracket;whiteSpace=wrap;html=1;rounded=1;labelPosition=left;verticalLabelPosition=middle;align=right;verticalAlign=middle;rotation=90;" parent="1" vertex="1">
          <mxGeometry x="187.5" y="-55.5" width="25" height="280" as="geometry" />
        </mxCell>
        <mxCell id="PphPl2FGhP92IQoDwCSP-14" value="n data entries" style="text;html=1;strokeColor=none;fillColor=none;align=center;verticalAlign=middle;whiteSpace=wrap;rounded=0;" parent="1" vertex="1">
          <mxGeometry x="100" y="40" width="200" height="30" as="geometry" />
        </mxCell>
        <mxCell id="PphPl2FGhP92IQoDwCSP-15" value="K&lt;sub&gt;2&lt;sub&gt;1&lt;/sub&gt;&lt;/sub&gt;" style="whiteSpace=wrap;html=1;aspect=fixed;" parent="1" vertex="1">
          <mxGeometry x="60" y="190" width="30" height="30" as="geometry" />
        </mxCell>
        <mxCell id="PphPl2FGhP92IQoDwCSP-16" value="" style="endArrow=none;dashed=1;html=1;dashPattern=1 3;strokeWidth=2;rounded=0;" parent="1" edge="1">
          <mxGeometry width="50" height="50" relative="1" as="geometry">
            <mxPoint x="240" y="204.76" as="sourcePoint" />
            <mxPoint x="280" y="204.76" as="targetPoint" />
            <Array as="points">
              <mxPoint x="240" y="204.76" />
            </Array>
          </mxGeometry>
        </mxCell>
        <mxCell id="PphPl2FGhP92IQoDwCSP-17" value="K&lt;sub&gt;2&lt;sub&gt;2&lt;/sub&gt;&lt;/sub&gt;" style="whiteSpace=wrap;html=1;aspect=fixed;" parent="1" vertex="1">
          <mxGeometry x="120" y="190" width="30" height="30" as="geometry" />
        </mxCell>
        <mxCell id="PphPl2FGhP92IQoDwCSP-18" value="K&lt;sub&gt;2&lt;sub&gt;3&lt;/sub&gt;&lt;/sub&gt;" style="whiteSpace=wrap;html=1;aspect=fixed;" parent="1" vertex="1">
          <mxGeometry x="180" y="190" width="30" height="30" as="geometry" />
        </mxCell>
        <mxCell id="PphPl2FGhP92IQoDwCSP-19" value="K&lt;sub&gt;2&lt;sub&gt;n&lt;/sub&gt;&lt;/sub&gt;" style="whiteSpace=wrap;html=1;aspect=fixed;" parent="1" vertex="1">
          <mxGeometry x="310" y="190" width="30" height="30" as="geometry" />
        </mxCell>
        <mxCell id="PphPl2FGhP92IQoDwCSP-20" value="K&lt;sub&gt;2&lt;sub&gt;n+1&lt;/sub&gt;&lt;/sub&gt;" style="whiteSpace=wrap;html=1;aspect=fixed;" parent="1" vertex="1">
          <mxGeometry x="370" y="190" width="30" height="30" as="geometry" />
        </mxCell>
        <mxCell id="PphPl2FGhP92IQoDwCSP-21" value="K&lt;sub&gt;3&lt;sub&gt;1&lt;/sub&gt;&lt;/sub&gt;" style="whiteSpace=wrap;html=1;aspect=fixed;" parent="1" vertex="1">
          <mxGeometry x="60" y="240" width="30" height="30" as="geometry" />
        </mxCell>
        <mxCell id="PphPl2FGhP92IQoDwCSP-22" value="" style="endArrow=none;dashed=1;html=1;dashPattern=1 3;strokeWidth=2;rounded=0;" parent="1" edge="1">
          <mxGeometry width="50" height="50" relative="1" as="geometry">
            <mxPoint x="240" y="254.76" as="sourcePoint" />
            <mxPoint x="280" y="254.76" as="targetPoint" />
            <Array as="points">
              <mxPoint x="240" y="254.76" />
            </Array>
          </mxGeometry>
        </mxCell>
        <mxCell id="PphPl2FGhP92IQoDwCSP-23" value="K&lt;sub&gt;3&lt;sub&gt;2&lt;/sub&gt;&lt;/sub&gt;" style="whiteSpace=wrap;html=1;aspect=fixed;" parent="1" vertex="1">
          <mxGeometry x="120" y="240" width="30" height="30" as="geometry" />
        </mxCell>
        <mxCell id="PphPl2FGhP92IQoDwCSP-24" value="K&lt;sub&gt;3&lt;sub&gt;3&lt;/sub&gt;&lt;/sub&gt;" style="whiteSpace=wrap;html=1;aspect=fixed;" parent="1" vertex="1">
          <mxGeometry x="180" y="240" width="30" height="30" as="geometry" />
        </mxCell>
        <mxCell id="PphPl2FGhP92IQoDwCSP-25" value="K&lt;sub&gt;3&lt;sub&gt;n&lt;/sub&gt;&lt;/sub&gt;" style="whiteSpace=wrap;html=1;aspect=fixed;" parent="1" vertex="1">
          <mxGeometry x="310" y="240" width="30" height="30" as="geometry" />
        </mxCell>
        <mxCell id="PphPl2FGhP92IQoDwCSP-26" value="K&lt;sub&gt;3&lt;sub&gt;n+1&lt;/sub&gt;&lt;/sub&gt;" style="whiteSpace=wrap;html=1;aspect=fixed;" parent="1" vertex="1">
          <mxGeometry x="370" y="240" width="30" height="30" as="geometry" />
        </mxCell>
        <mxCell id="PphPl2FGhP92IQoDwCSP-27" value="K&lt;sub&gt;2&lt;sub&gt;n+2&lt;/sub&gt;&lt;/sub&gt;" style="whiteSpace=wrap;html=1;aspect=fixed;" parent="1" vertex="1">
          <mxGeometry x="430" y="190" width="30" height="30" as="geometry" />
        </mxCell>
        <mxCell id="PphPl2FGhP92IQoDwCSP-28" value="" style="endArrow=none;dashed=1;html=1;dashPattern=1 3;strokeWidth=2;rounded=0;" parent="1" edge="1">
          <mxGeometry width="50" height="50" relative="1" as="geometry">
            <mxPoint x="75" y="282" as="sourcePoint" />
            <mxPoint x="75" y="310" as="targetPoint" />
            <Array as="points">
              <mxPoint x="75" y="282" />
            </Array>
          </mxGeometry>
        </mxCell>
        <mxCell id="PphPl2FGhP92IQoDwCSP-30" value="" style="endArrow=none;dashed=1;html=1;dashPattern=1 3;strokeWidth=2;rounded=0;" parent="1" edge="1">
          <mxGeometry width="50" height="50" relative="1" as="geometry">
            <mxPoint x="135" y="282" as="sourcePoint" />
            <mxPoint x="135" y="310" as="targetPoint" />
            <Array as="points">
              <mxPoint x="135" y="282" />
            </Array>
          </mxGeometry>
        </mxCell>
        <mxCell id="PphPl2FGhP92IQoDwCSP-31" value="" style="endArrow=none;dashed=1;html=1;dashPattern=1 3;strokeWidth=2;rounded=0;" parent="1" edge="1">
          <mxGeometry width="50" height="50" relative="1" as="geometry">
            <mxPoint x="194.74" y="280" as="sourcePoint" />
            <mxPoint x="194.74" y="308" as="targetPoint" />
            <Array as="points">
              <mxPoint x="194.74" y="280" />
            </Array>
          </mxGeometry>
        </mxCell>
        <mxCell id="PphPl2FGhP92IQoDwCSP-32" value="" style="endArrow=none;dashed=1;html=1;dashPattern=1 3;strokeWidth=2;rounded=0;" parent="1" edge="1">
          <mxGeometry width="50" height="50" relative="1" as="geometry">
            <mxPoint x="324.74" y="280" as="sourcePoint" />
            <mxPoint x="324.74" y="308" as="targetPoint" />
            <Array as="points">
              <mxPoint x="324.74" y="280" />
            </Array>
          </mxGeometry>
        </mxCell>
        <mxCell id="PphPl2FGhP92IQoDwCSP-33" value="" style="endArrow=none;dashed=1;html=1;dashPattern=1 3;strokeWidth=2;rounded=0;" parent="1" edge="1">
          <mxGeometry width="50" height="50" relative="1" as="geometry">
            <mxPoint x="246" y="285" as="sourcePoint" />
            <mxPoint x="276" y="305" as="targetPoint" />
            <Array as="points" />
          </mxGeometry>
        </mxCell>
        <mxCell id="PphPl2FGhP92IQoDwCSP-35" value="K&lt;sub&gt;m&lt;sub&gt;1&lt;/sub&gt;&lt;/sub&gt;" style="whiteSpace=wrap;html=1;aspect=fixed;" parent="1" vertex="1">
          <mxGeometry x="60" y="320" width="30" height="30" as="geometry" />
        </mxCell>
        <mxCell id="PphPl2FGhP92IQoDwCSP-36" value="K&lt;sub&gt;m&lt;sub&gt;2&lt;/sub&gt;&lt;/sub&gt;" style="whiteSpace=wrap;html=1;aspect=fixed;" parent="1" vertex="1">
          <mxGeometry x="120" y="320" width="30" height="30" as="geometry" />
        </mxCell>
        <mxCell id="PphPl2FGhP92IQoDwCSP-37" value="K&lt;sub&gt;m&lt;sub&gt;3&lt;/sub&gt;&lt;/sub&gt;" style="whiteSpace=wrap;html=1;aspect=fixed;" parent="1" vertex="1">
          <mxGeometry x="180" y="320" width="30" height="30" as="geometry" />
        </mxCell>
        <mxCell id="PphPl2FGhP92IQoDwCSP-38" value="K&lt;sub&gt;m&lt;sub&gt;n&lt;/sub&gt;&lt;/sub&gt;" style="whiteSpace=wrap;html=1;aspect=fixed;" parent="1" vertex="1">
          <mxGeometry x="310" y="320" width="30" height="30" as="geometry" />
        </mxCell>
        <mxCell id="PphPl2FGhP92IQoDwCSP-39" value="" style="endArrow=none;dashed=1;html=1;dashPattern=1 3;strokeWidth=2;rounded=0;" parent="1" edge="1">
          <mxGeometry width="50" height="50" relative="1" as="geometry">
            <mxPoint x="240" y="334.78999999999996" as="sourcePoint" />
            <mxPoint x="280" y="334.78999999999996" as="targetPoint" />
            <Array as="points">
              <mxPoint x="240" y="334.78999999999996" />
            </Array>
          </mxGeometry>
        </mxCell>
        <mxCell id="PphPl2FGhP92IQoDwCSP-40" value="" style="shape=curlyBracket;whiteSpace=wrap;html=1;rounded=1;labelPosition=left;verticalLabelPosition=middle;align=right;verticalAlign=middle;rotation=0;" parent="1" vertex="1">
          <mxGeometry x="-18" y="140" width="25" height="210" as="geometry" />
        </mxCell>
        <mxCell id="PphPl2FGhP92IQoDwCSP-41" value="m simulation models" style="text;html=1;strokeColor=none;fillColor=none;align=center;verticalAlign=middle;whiteSpace=wrap;rounded=0;rotation=-90;" parent="1" vertex="1">
          <mxGeometry x="-90" y="220" width="120" height="30" as="geometry" />
        </mxCell>
        <mxCell id="PphPl2FGhP92IQoDwCSP-44" value="Model 1" style="text;html=1;strokeColor=none;fillColor=none;align=center;verticalAlign=middle;whiteSpace=wrap;rounded=0;fontSize=10;" parent="1" vertex="1">
          <mxGeometry y="140" width="60" height="30" as="geometry" />
        </mxCell>
        <mxCell id="PphPl2FGhP92IQoDwCSP-45" value="Model 2" style="text;html=1;strokeColor=none;fillColor=none;align=center;verticalAlign=middle;whiteSpace=wrap;rounded=0;fontSize=10;" parent="1" vertex="1">
          <mxGeometry y="190" width="60" height="30" as="geometry" />
        </mxCell>
        <mxCell id="PphPl2FGhP92IQoDwCSP-46" value="Model 3" style="text;html=1;strokeColor=none;fillColor=none;align=center;verticalAlign=middle;whiteSpace=wrap;rounded=0;fontSize=10;" parent="1" vertex="1">
          <mxGeometry y="240" width="60" height="30" as="geometry" />
        </mxCell>
        <mxCell id="PphPl2FGhP92IQoDwCSP-47" value="Model m" style="text;html=1;strokeColor=none;fillColor=none;align=center;verticalAlign=middle;whiteSpace=wrap;rounded=0;fontSize=10;" parent="1" vertex="1">
          <mxGeometry y="320" width="60" height="30" as="geometry" />
        </mxCell>
        <mxCell id="PphPl2FGhP92IQoDwCSP-48" value="&lt;font style=&quot;font-size: 10px;&quot;&gt;&lt;b&gt;Meta-Model&lt;/b&gt;&lt;/font&gt;" style="ellipse;whiteSpace=wrap;html=1;fillStyle=solid;fillColor=none;fontColor=default;strokeColor=none;" parent="1" vertex="1">
          <mxGeometry x="-10" y="397.5" width="65" height="32.5" as="geometry" />
        </mxCell>
        <mxCell id="PphPl2FGhP92IQoDwCSP-53" value="C&lt;sub&gt;1&lt;/sub&gt;" style="text;html=1;strokeColor=none;fillColor=none;align=center;verticalAlign=middle;whiteSpace=wrap;rounded=0;fontSize=10;" parent="1" vertex="1">
          <mxGeometry x="45" y="100" width="60" height="30" as="geometry" />
        </mxCell>
        <mxCell id="PphPl2FGhP92IQoDwCSP-54" value="C&lt;sub&gt;2&lt;/sub&gt;" style="text;html=1;strokeColor=none;fillColor=none;align=center;verticalAlign=middle;whiteSpace=wrap;rounded=0;fontSize=10;" parent="1" vertex="1">
          <mxGeometry x="105" y="100" width="60" height="30" as="geometry" />
        </mxCell>
        <mxCell id="PphPl2FGhP92IQoDwCSP-55" value="C&lt;sub&gt;3&lt;/sub&gt;" style="text;html=1;strokeColor=none;fillColor=none;align=center;verticalAlign=middle;whiteSpace=wrap;rounded=0;fontSize=10;" parent="1" vertex="1">
          <mxGeometry x="165" y="100" width="60" height="30" as="geometry" />
        </mxCell>
        <mxCell id="PphPl2FGhP92IQoDwCSP-57" value="C&lt;sub&gt;n&lt;/sub&gt;" style="text;html=1;strokeColor=none;fillColor=none;align=center;verticalAlign=middle;whiteSpace=wrap;rounded=0;fontSize=10;" parent="1" vertex="1">
          <mxGeometry x="295" y="100" width="60" height="30" as="geometry" />
        </mxCell>
        <mxCell id="PphPl2FGhP92IQoDwCSP-58" value="C&lt;sub&gt;n+1&lt;/sub&gt;" style="text;html=1;strokeColor=none;fillColor=none;align=center;verticalAlign=middle;whiteSpace=wrap;rounded=0;fontSize=10;" parent="1" vertex="1">
          <mxGeometry x="354" y="100" width="60" height="30" as="geometry" />
        </mxCell>
        <mxCell id="PphPl2FGhP92IQoDwCSP-59" value="C&lt;sub&gt;n+2&lt;/sub&gt;" style="text;html=1;strokeColor=none;fillColor=none;align=center;verticalAlign=middle;whiteSpace=wrap;rounded=0;fontSize=10;" parent="1" vertex="1">
          <mxGeometry x="415" y="100" width="60" height="30" as="geometry" />
        </mxCell>
        <mxCell id="PphPl2FGhP92IQoDwCSP-61" value="&lt;b&gt;F&lt;sub&gt;1&lt;/sub&gt;&lt;/b&gt;" style="ellipse;whiteSpace=wrap;html=1;aspect=fixed;fillColor=#f5f5f5;fontColor=#333333;strokeColor=#666666;" parent="1" vertex="1">
          <mxGeometry x="57.5" y="397.5" width="35" height="35" as="geometry" />
        </mxCell>
        <mxCell id="PphPl2FGhP92IQoDwCSP-62" value="&lt;b&gt;F&lt;sub&gt;2&lt;/sub&gt;&lt;/b&gt;" style="ellipse;whiteSpace=wrap;html=1;aspect=fixed;fillColor=#f5f5f5;fontColor=#333333;strokeColor=#666666;" parent="1" vertex="1">
          <mxGeometry x="117.5" y="397.5" width="35" height="35" as="geometry" />
        </mxCell>
        <mxCell id="PphPl2FGhP92IQoDwCSP-63" value="&lt;b&gt;F&lt;sub&gt;3&lt;/sub&gt;&lt;/b&gt;" style="ellipse;whiteSpace=wrap;html=1;aspect=fixed;fillColor=#f5f5f5;fontColor=#333333;strokeColor=#666666;" parent="1" vertex="1">
          <mxGeometry x="177.5" y="397.5" width="35" height="35" as="geometry" />
        </mxCell>
        <mxCell id="PphPl2FGhP92IQoDwCSP-64" value="&lt;b&gt;F&lt;sub&gt;n&lt;/sub&gt;&lt;/b&gt;" style="ellipse;whiteSpace=wrap;html=1;aspect=fixed;fillColor=#f5f5f5;fontColor=#333333;strokeColor=#666666;" parent="1" vertex="1">
          <mxGeometry x="307.5" y="397.5" width="35" height="35" as="geometry" />
        </mxCell>
        <mxCell id="PphPl2FGhP92IQoDwCSP-65" value="" style="endArrow=none;dashed=1;html=1;dashPattern=1 3;strokeWidth=2;rounded=0;" parent="1" edge="1">
          <mxGeometry width="50" height="50" relative="1" as="geometry">
            <mxPoint x="240" y="414.76" as="sourcePoint" />
            <mxPoint x="280" y="414.76" as="targetPoint" />
            <Array as="points">
              <mxPoint x="240" y="414.76" />
            </Array>
          </mxGeometry>
        </mxCell>
        <mxCell id="PphPl2FGhP92IQoDwCSP-66" value="" style="shape=curlyBracket;whiteSpace=wrap;html=1;rounded=1;labelPosition=left;verticalLabelPosition=middle;align=right;verticalAlign=middle;rotation=-90;" parent="1" vertex="1">
          <mxGeometry x="70.63" y="340" width="8.75" height="36.25" as="geometry" />
        </mxCell>
        <mxCell id="PphPl2FGhP92IQoDwCSP-67" value="Input: m models, with minimum &lt;font color=&quot;#006600&quot;&gt;&lt;b&gt;n data entries&lt;/b&gt;&lt;/font&gt;, and maximum n+2 data entries, per model." style="text;html=1;strokeColor=none;fillColor=none;align=center;verticalAlign=middle;whiteSpace=wrap;rounded=0;" parent="1" vertex="1">
          <mxGeometry x="-10" y="10" width="490" height="30" as="geometry" />
        </mxCell>
        <mxCell id="PphPl2FGhP92IQoDwCSP-69" value="" style="endArrow=classic;html=1;rounded=0;exitX=0.1;exitY=0.5;exitDx=0;exitDy=0;exitPerimeter=0;" parent="1" edge="1">
          <mxGeometry width="50" height="50" relative="1" as="geometry">
            <mxPoint x="75.00500000000011" y="371.625" as="sourcePoint" />
            <mxPoint x="75" y="390" as="targetPoint" />
          </mxGeometry>
        </mxCell>
        <mxCell id="PphPl2FGhP92IQoDwCSP-71" value="" style="shape=curlyBracket;whiteSpace=wrap;html=1;rounded=1;labelPosition=left;verticalLabelPosition=middle;align=right;verticalAlign=middle;rotation=-90;" parent="1" vertex="1">
          <mxGeometry x="130.62" y="340" width="8.75" height="36.25" as="geometry" />
        </mxCell>
        <mxCell id="PphPl2FGhP92IQoDwCSP-72" value="" style="shape=curlyBracket;whiteSpace=wrap;html=1;rounded=1;labelPosition=left;verticalLabelPosition=middle;align=right;verticalAlign=middle;rotation=-90;" parent="1" vertex="1">
          <mxGeometry x="190.62" y="340" width="8.75" height="36.25" as="geometry" />
        </mxCell>
        <mxCell id="PphPl2FGhP92IQoDwCSP-73" value="" style="shape=curlyBracket;whiteSpace=wrap;html=1;rounded=1;labelPosition=left;verticalLabelPosition=middle;align=right;verticalAlign=middle;rotation=-90;" parent="1" vertex="1">
          <mxGeometry x="320.62" y="340" width="8.75" height="36.25" as="geometry" />
        </mxCell>
        <mxCell id="PphPl2FGhP92IQoDwCSP-74" value="" style="endArrow=classic;html=1;rounded=0;exitX=0.1;exitY=0.5;exitDx=0;exitDy=0;exitPerimeter=0;" parent="1" edge="1">
          <mxGeometry width="50" height="50" relative="1" as="geometry">
            <mxPoint x="134.8250000000001" y="370.005" as="sourcePoint" />
            <mxPoint x="134.82" y="388.38" as="targetPoint" />
          </mxGeometry>
        </mxCell>
        <mxCell id="PphPl2FGhP92IQoDwCSP-75" value="" style="endArrow=classic;html=1;rounded=0;exitX=0.1;exitY=0.5;exitDx=0;exitDy=0;exitPerimeter=0;" parent="1" edge="1">
          <mxGeometry width="50" height="50" relative="1" as="geometry">
            <mxPoint x="194.8250000000001" y="370.005" as="sourcePoint" />
            <mxPoint x="194.82" y="388.38" as="targetPoint" />
          </mxGeometry>
        </mxCell>
        <mxCell id="PphPl2FGhP92IQoDwCSP-76" value="" style="endArrow=classic;html=1;rounded=0;exitX=0.1;exitY=0.5;exitDx=0;exitDy=0;exitPerimeter=0;" parent="1" edge="1">
          <mxGeometry width="50" height="50" relative="1" as="geometry">
            <mxPoint x="324.6950000000001" y="370.005" as="sourcePoint" />
            <mxPoint x="324.69" y="388.38" as="targetPoint" />
          </mxGeometry>
        </mxCell>
        <mxCell id="PphPl2FGhP92IQoDwCSP-78" value="Output: one meta-model, with &lt;font color=&quot;#006600&quot;&gt;&lt;b&gt;n data entries.&lt;/b&gt;&lt;/font&gt;" style="text;html=1;strokeColor=none;fillColor=none;align=center;verticalAlign=middle;whiteSpace=wrap;rounded=0;" parent="1" vertex="1">
          <mxGeometry x="-80" y="470" width="470" height="30" as="geometry" />
        </mxCell>
        <mxCell id="PphPl2FGhP92IQoDwCSP-80" value="" style="shape=curlyBracket;whiteSpace=wrap;html=1;rounded=1;labelPosition=left;verticalLabelPosition=middle;align=right;verticalAlign=middle;rotation=-90;" parent="1" vertex="1">
          <mxGeometry x="165" y="280" width="10" height="360" as="geometry" />
        </mxCell>
      </root>
    </mxGraphModel>
  </diagram>
</mxfile>
